<?xml version="1.0" encoding="iso-8859-1"?>
<!-- Generator: Adobe Illustrator 19.0.0, SVG Export Plug-In . SVG Version: 6.00 Build 0)  -->
<svg xmlns="http://www.w3.org/2000/svg" xmlns:xlink="http://www.w3.org/1999/xlink" version="1.1" id="Layer_1" x="0px" y="0px" viewBox="0 0 512 512" style="enable-background:new 0 0 512 512;" xml:space="preserve" width="512px" height="512px">
<g transform="translate(0 -1)">
	<g>
		<g>
			<path d="M405.333,26.598H234.667c-4.713,0-8.533,3.82-8.533,8.533v51.202H192V26.6C192,12.458,180.542,1,166.4,1     c-14.142,0-25.6,11.458-25.6,25.6v435.2c-23.563,0-42.667,19.104-42.667,42.667c0,4.713,3.82,8.533,8.533,8.533h119.467     c4.713,0,8.533-3.821,8.533-8.533c0-23.563-19.104-42.667-42.667-42.667V257h34.133v51.198c0,4.713,3.82,8.533,8.533,8.533     h170.667c4.713,0,8.533-3.82,8.533-8.533V35.132C413.867,30.419,410.046,26.598,405.333,26.598z M216.143,495.933h-99.486     c3.515-9.942,12.998-17.067,24.143-17.067h8.533h34.133H192C203.145,478.867,212.628,485.991,216.143,495.933z M157.867,461.8     V26.6c0-4.716,3.817-8.533,8.533-8.533c4.716,0,8.533,3.817,8.533,8.533v435.2H157.867z M192,239.933V103.4h34.133v136.533H192z      M396.8,299.665H243.2v-256h153.6V299.665z" fill="#FFFFFF"/>
			<path d="M277.333,188.733c4.713,0,8.533-3.82,8.533-8.533v-25.602h34.099c0.011,0,0.022,0.002,0.034,0.002     s0.022-0.002,0.034-0.002h34.1V180.2c0,4.713,3.82,8.533,8.533,8.533s8.533-3.82,8.533-8.533v-34.135V94.867V77.798     c0-4.713-3.82-8.533-8.533-8.533h-85.333c-4.713,0-8.533,3.82-8.533,8.533v17.068v51.198V180.2     C268.8,184.913,272.621,188.733,277.333,188.733z M354.133,94.867v42.665h-25.6v-51.2h25.6V94.867z M285.867,86.332h25.6v51.2     h-25.6V94.867V86.332z" fill="#FFFFFF"/>
			<path d="M285.867,205.8c-4.713,0-8.533,3.82-8.533,8.533s3.821,8.533,8.533,8.533h68.267c4.713,0,8.533-3.82,8.533-8.533     s-3.82-8.533-8.533-8.533H285.867z" fill="#FFFFFF"/>
			<path d="M268.8,265.533h102.4c4.713,0,8.533-3.82,8.533-8.533c0-4.713-3.82-8.533-8.533-8.533H268.8     c-4.713,0-8.533,3.821-8.533,8.533C260.267,261.713,264.087,265.533,268.8,265.533z" fill="#FFFFFF"/>
		</g>
	</g>
</g>
<g>
</g>
<g>
</g>
<g>
</g>
<g>
</g>
<g>
</g>
<g>
</g>
<g>
</g>
<g>
</g>
<g>
</g>
<g>
</g>
<g>
</g>
<g>
</g>
<g>
</g>
<g>
</g>
<g>
</g>
</svg>
