<!-- Generator: Adobe Illustrator 19.1.0, SVG Export Plug-In  -->
<svg version="1.1"
	 xmlns="http://www.w3.org/2000/svg" xmlns:xlink="http://www.w3.org/1999/xlink" xmlns:a="http://ns.adobe.com/AdobeSVGViewerExtensions/3.0/"
	 x="0px" y="0px" width="168.31px" height="79.73px" viewBox="0 0 168.31 79.73" style="enable-background:new 0 0 168.31 79.73;"
	 xml:space="preserve">
<style type="text/css">
	.st0{fill:#FFD521;}
	.st1{fill:#FFFFFF;}
</style>
<defs>
</defs>
<path class="st0" d="M106.3,53.15v26.58h44.29l17.72-17.72v-8.86H106.3z M165.47,60.84l-16.05,16.05h-40.29v-20.9h56.34V60.84z"/>
<path class="st1" d="M70.87,0v79.73h26.57V0H70.87z M94.61,76.89H73.7V2.84h20.91V76.89z"/>
<path class="st1" d="M35.43,0v44.29h26.58V0H35.43z M59.17,41.46h-20.9V2.84h20.9V41.46z"/>
<path class="st1" d="M26.57,53.15V0H0v62.01l17.72,17.72h44.29V53.15H26.57z M59.17,76.89H18.89L2.83,60.83V2.84h20.91v53.15h35.43
	V76.89z"/>
<path class="st1" d="M150.59,0H106.3v44.29h26.57V26.58h8.86v17.71h26.58V17.72L150.59,0z M165.47,41.46h-20.9V23.74h-14.53v17.72
	h-20.91V2.84h40.29l16.05,16.05V41.46z"/>
</svg>