<?xml version="1.0" encoding="iso-8859-1"?>
<!-- Generator: Adobe Illustrator 19.0.0, SVG Export Plug-In . SVG Version: 6.00 Build 0)  -->
<svg xmlns="http://www.w3.org/2000/svg" xmlns:xlink="http://www.w3.org/1999/xlink" version="1.1" id="Layer_1" x="0px" y="0px" viewBox="0 0 512 512" style="enable-background:new 0 0 512 512;" xml:space="preserve" width="512px" height="512px">
<g transform="translate(1 1)">
	<g>
		<g>
			<path d="M86.04,298.52c0.853,2.56,4.267,4.267,6.827,4.267c2.56,0,5.973-1.707,6.827-3.413     c0.853-0.853,40.107-61.44,65.707-117.76c13.653-29.013,21.333-46.08,21.333-76.8c0-50.347-34.987-101.547-93.867-101.547     C33.987,3.267-1,54.467-1,103.96c0,31.573,8.533,48.64,21.333,76.8C45.933,237.08,86.04,297.667,86.04,298.52z M92.867,20.333     c47.787,0,76.8,42.667,76.8,84.48c0,27.307-6.827,41.813-19.627,69.12c-18.773,40.96-44.373,83.627-57.173,104.107     c-11.947-20.48-38.4-63.147-57.173-104.107c-12.8-27.307-19.627-41.813-19.627-69.12C16.067,63,45.08,20.333,92.867,20.333z" fill="#FFFFFF"/>
			<path d="M92.867,148.333c28.16,0,51.2-23.04,51.2-51.2c0-28.16-23.04-51.2-51.2-51.2c-28.16,0-51.2,23.04-51.2,51.2     C41.667,125.293,64.707,148.333,92.867,148.333z M92.867,63C111.64,63,127,78.36,127,97.133c0,18.773-15.36,34.133-34.133,34.133     c-18.773,0-34.133-15.36-34.133-34.133C58.733,78.36,74.093,63,92.867,63z" fill="#FFFFFF"/>
			<path d="M417.133,173.933c-58.88,0-93.867,51.2-93.867,100.693c0,31.573,8.533,48.64,21.333,76.8     c25.6,56.32,65.707,116.907,65.707,117.76c0.853,2.56,4.267,4.267,6.827,4.267s5.973-1.707,6.827-3.413     c0.853-0.853,40.107-61.44,65.707-117.76C503.32,323.267,511,306.2,511,275.48C511,225.133,476.013,173.933,417.133,173.933z      M474.307,344.6c-18.773,40.96-44.373,83.627-57.173,104.107c-11.947-20.48-38.4-63.147-57.173-104.107     c-12.8-27.307-19.627-41.813-19.627-69.12c0-41.813,29.013-84.48,76.8-84.48c47.787,0,76.8,42.667,76.8,84.48     C493.933,302.787,487.107,317.293,474.307,344.6z" fill="#FFFFFF"/>
			<path d="M417.133,216.6c-28.16,0-51.2,23.04-51.2,51.2s23.04,51.2,51.2,51.2s51.2-23.04,51.2-51.2S445.293,216.6,417.133,216.6z      M417.133,301.933c-18.773,0-34.133-15.36-34.133-34.133c0-18.773,15.36-34.133,34.133-34.133     c18.773,0,34.133,15.36,34.133,34.133C451.267,286.573,435.907,301.933,417.133,301.933z" fill="#FFFFFF"/>
			<path d="M417.133,489.667H408.6c-5.12,0-8.533,3.413-8.533,8.533s3.413,8.533,8.533,8.533h8.533c5.12,0,8.533-3.413,8.533-8.533     S422.253,489.667,417.133,489.667z" fill="#FFFFFF"/>
			<path d="M326.68,489.667h-16.213c-5.12,0-8.533,3.413-8.533,8.533s3.413,8.533,8.533,8.533h16.213     c5.12,0,8.533-3.413,8.533-8.533S331.8,489.667,326.68,489.667z" fill="#FFFFFF"/>
			<path d="M376.173,489.667H359.96c-5.12,0-8.533,3.413-8.533,8.533s3.413,8.533,8.533,8.533h16.213     c4.267,0,8.533-3.413,8.533-8.533S381.293,489.667,376.173,489.667z" fill="#FFFFFF"/>
			<path d="M134.68,319c-5.12,0-8.533,3.413-8.533,8.533s3.413,8.533,8.533,8.533h16.213c5.12,0,8.533-3.413,8.533-8.533     S156.013,319,150.893,319H134.68z" fill="#FFFFFF"/>
			<path d="M16.92,456.387c4.267,0,7.68-2.56,8.533-5.973c0-4.267,1.707-8.533,4.267-11.947c2.56-4.267,1.707-9.387-2.56-11.947     c-4.267-2.56-9.387-1.707-11.947,2.56C11.8,434.2,9.24,440.173,8.387,447c-0.853,4.267,2.56,8.533,6.827,9.387     C16.067,456.387,16.067,456.387,16.92,456.387z" fill="#FFFFFF"/>
			<path d="M225.133,342.893c3.413,3.413,5.973,6.827,8.533,10.24c1.707,2.56,5.12,4.267,7.68,4.267c0.853,0,2.56,0,3.413-1.707     c4.267-2.56,5.973-7.68,3.413-11.947c-3.413-5.12-7.68-10.24-12.8-14.507c-3.413-2.56-9.387-1.707-11.947,1.707     S221.72,340.333,225.133,342.893z" fill="#FFFFFF"/>
			<path d="M39.96,483.693c-4.267-2.56-6.827-5.12-9.387-9.387c-2.56-4.267-7.68-5.12-11.947-2.56     c-4.267,2.56-5.12,7.68-2.56,11.947c3.413,5.973,8.533,10.24,13.653,13.653c1.707,0.853,3.413,1.707,5.12,1.707     c2.56,0,5.12-0.853,7.68-3.413C45.08,491.373,44.227,486.253,39.96,483.693z" fill="#FFFFFF"/>
			<path d="M174.787,327.533c0,5.12,3.413,8.533,8.533,8.533h16.213c5.12,0,8.533-3.413,8.533-8.533S204.653,319,199.533,319H183.32     C178.2,319,174.787,322.413,174.787,327.533z" fill="#FFFFFF"/>
			<path d="M121.88,412.867c0-5.12-3.413-8.533-8.533-8.533H97.133c-5.12,0-8.533,3.413-8.533,8.533c0,5.12,3.413,8.533,8.533,8.533     h16.213C117.613,421.4,121.88,417.987,121.88,412.867z" fill="#FFFFFF"/>
			<path d="M64.707,421.4c5.12,0,8.533-3.413,8.533-8.533c0-5.12-3.413-8.533-8.533-8.533h-5.973c-4.267,0-8.533,0.853-12.8,1.707     c-4.267,0.853-6.827,5.973-5.973,10.24s5.12,6.827,8.533,6.827c0,0,0.853-0.853,1.707-0.853c2.56-0.853,5.973-0.853,8.533-0.853     H64.707z" fill="#FFFFFF"/>
			<path d="M220.013,410.307c-0.853-4.267-5.973-7.68-10.24-6.827c-1.707,0.853-4.267,0.853-5.973,0.853h-8.533     c-5.12,0-8.533,3.413-8.533,8.533c0,5.12,3.413,8.533,8.533,8.533h8.533c2.56,0,5.973,0,9.387-0.853     C217.453,419.693,220.867,414.573,220.013,410.307z" fill="#FFFFFF"/>
			<path d="M246.467,372.76c-4.267-1.707-9.387,1.707-10.24,5.973s-2.56,8.533-5.12,11.947s-1.707,9.387,1.707,11.947     c1.707,0.853,3.413,1.707,5.12,1.707c2.56,0,5.12-1.707,5.973-3.413c4.267-5.973,6.827-11.947,8.533-17.92     C254.147,378.733,250.733,373.613,246.467,372.76z" fill="#FFFFFF"/>
			<path d="M170.52,412.867c0-5.12-3.413-8.533-8.533-8.533h-16.213c-5.12,0-8.533,3.413-8.533,8.533     c0,5.12,3.413,8.533,8.533,8.533h16.213C167.107,421.4,170.52,417.987,170.52,412.867z" fill="#FFFFFF"/>
			<path d="M229.4,489.667h-16.213c-5.12,0-8.533,3.413-8.533,8.533s3.413,8.533,8.533,8.533H229.4c4.267,0,8.533-3.413,8.533-8.533     S234.52,489.667,229.4,489.667z" fill="#FFFFFF"/>
			<path d="M179.907,489.667h-16.213c-5.12,0-8.533,3.413-8.533,8.533s3.413,8.533,8.533,8.533h16.213     c5.12,0,8.533-3.413,8.533-8.533S185.027,489.667,179.907,489.667z" fill="#FFFFFF"/>
			<path d="M131.267,489.667h-16.213c-5.12,0-8.533,3.413-8.533,8.533s3.413,8.533,8.533,8.533h16.213     c4.267,0,8.533-3.413,8.533-8.533S136.387,489.667,131.267,489.667z" fill="#FFFFFF"/>
			<path d="M81.773,489.667H65.56c-5.12,0-8.533,3.413-8.533,8.533s3.413,8.533,8.533,8.533h17.067c4.267,0,7.68-3.413,7.68-8.533     S86.893,489.667,81.773,489.667z" fill="#FFFFFF"/>
			<path d="M278.04,489.667h-16.213c-5.12,0-8.533,3.413-8.533,8.533s3.413,8.533,8.533,8.533h16.213     c5.12,0,8.533-3.413,8.533-8.533S283.16,489.667,278.04,489.667z" fill="#FFFFFF"/>
			<path d="M92.867,319c-5.12,0-8.533,3.413-8.533,8.533s3.413,8.533,8.533,8.533h8.533c5.12,0,8.533-3.413,8.533-8.533     S106.52,319,101.4,319H92.867z" fill="#FFFFFF"/>
		</g>
	</g>
</g>
<g>
</g>
<g>
</g>
<g>
</g>
<g>
</g>
<g>
</g>
<g>
</g>
<g>
</g>
<g>
</g>
<g>
</g>
<g>
</g>
<g>
</g>
<g>
</g>
<g>
</g>
<g>
</g>
<g>
</g>
</svg>
